<svg width="182" height="33" viewBox="0 0 182 33" fill="none" xmlns="http://www.w3.org/2000/svg">
<path d="M6.876 28.648C4.692 28.648 3.036 28.048 1.908 26.848C0.804 25.648 0.252 24.136 0.252 22.312C0.252 21.016 0.516 19.72 1.044 18.424C1.596 17.104 2.376 15.952 3.384 14.968C4.392 13.984 5.568 13.324 6.912 12.988C6.168 12.46 5.616 11.824 5.256 11.08C4.896 10.312 4.716 9.508 4.716 8.668C4.716 7.42 5.052 6.196 5.724 4.996C6.42 3.796 7.368 2.824 8.568 2.08C9.792 1.312 11.136 0.927999 12.6 0.927999C14.112 0.927999 15.348 1.324 16.308 2.116C17.268 2.908 17.748 4.012 17.748 5.428C17.748 6.484 17.484 7.372 16.956 8.092C16.428 8.812 15.804 9.172 15.084 9.172C14.436 9.172 13.872 8.848 13.392 8.2C13.824 8.056 14.196 7.66 14.508 7.012C14.82 6.364 14.976 5.716 14.976 5.068C14.976 4.372 14.784 3.868 14.4 3.556C14.016 3.22 13.548 3.052 12.996 3.052C12.3 3.052 11.664 3.304 11.088 3.808C10.536 4.288 10.104 4.924 9.792 5.716C9.48 6.484 9.324 7.288 9.324 8.128C9.324 9.28 9.624 10.3 10.224 11.188C10.824 12.052 11.736 12.64 12.96 12.952C11.736 13.216 10.632 13.816 9.648 14.752C8.664 15.688 7.896 16.78 7.344 18.028C6.792 19.252 6.516 20.428 6.516 21.556C6.516 22.636 6.792 23.512 7.344 24.184C7.92 24.856 8.784 25.192 9.936 25.192C11.136 25.192 12.384 24.868 13.68 24.22C15 23.548 15.972 22.648 16.596 21.52L17.424 21.88C16.488 23.944 15.048 25.588 13.104 26.812C11.16 28.036 9.084 28.648 6.876 28.648ZM23.0354 8.056C22.2434 8.056 21.5714 7.78 21.0194 7.228C20.4674 6.676 20.1914 6.004 20.1914 5.212C20.1914 4.42 20.4674 3.748 21.0194 3.196C21.5714 2.62 22.2434 2.332 23.0354 2.332C23.8274 2.332 24.4994 2.62 25.0514 3.196C25.6274 3.748 25.9154 4.42 25.9154 5.212C25.9154 6.004 25.6274 6.676 25.0514 7.228C24.4994 7.78 23.8274 8.056 23.0354 8.056ZM20.5874 28.216C19.4354 28.216 18.4994 27.856 17.7794 27.136C17.0834 26.416 16.7354 25.336 16.7354 23.896C16.7354 23.296 16.8314 22.516 17.0234 21.556L19.4714 10H24.6554L22.0634 22.24C21.9674 22.6 21.9194 22.984 21.9194 23.392C21.9194 23.872 22.0274 24.22 22.2434 24.436C22.4834 24.628 22.8674 24.724 23.3954 24.724C24.0914 24.724 24.7394 24.436 25.3394 23.86C25.9394 23.26 26.3714 22.492 26.6354 21.556H28.1474C27.2594 24.148 26.1194 25.912 24.7274 26.848C23.3354 27.76 21.9554 28.216 20.5874 28.216ZM31.4411 28.216C30.0731 28.216 28.9331 27.748 28.0211 26.812C27.1091 25.876 26.6531 24.412 26.6531 22.42C26.6531 20.644 27.0011 18.784 27.6971 16.84C28.4171 14.872 29.4731 13.216 30.8651 11.872C32.2811 10.504 33.9611 9.82 35.9051 9.82C36.8891 9.82 37.6211 9.988 38.1011 10.324C38.5811 10.66 38.8211 11.104 38.8211 11.656V11.8L40.5851 3.52L45.9131 2.8L41.7731 22.24C41.6771 22.6 41.6291 22.984 41.6291 23.392C41.6291 23.872 41.7371 24.22 41.9531 24.436C42.1931 24.628 42.5771 24.724 43.1051 24.724C43.7771 24.724 44.3531 24.436 44.8331 23.86C45.3371 23.284 45.7331 22.516 46.0211 21.556H47.5331C46.0691 25.852 43.6571 28 40.2971 28C39.3131 28 38.5091 27.736 37.8851 27.208C37.2851 26.68 36.9131 25.912 36.7691 24.904C36.1451 25.864 35.3891 26.656 34.5011 27.28C33.6371 27.904 32.6171 28.216 31.4411 28.216ZM33.7811 24.724C34.3571 24.724 34.9331 24.46 35.5091 23.932C36.1091 23.404 36.5171 22.672 36.7331 21.736V21.556L38.4971 13.312C38.2811 12.472 37.7891 12.052 37.0211 12.052C36.0611 12.052 35.1971 12.616 34.4291 13.744C33.6611 14.848 33.0611 16.192 32.6291 17.776C32.1971 19.336 31.9811 20.716 31.9811 21.916C31.9811 23.116 32.1491 23.884 32.4851 24.22C32.8451 24.556 33.2771 24.724 33.7811 24.724ZM67.6198 28.252C65.2438 28.252 63.4438 27.676 62.2198 26.524C61.0198 25.348 60.4198 23.62 60.4198 21.34C60.4198 20.212 60.5878 18.952 60.9238 17.56L64.5958 2.944C62.5318 3.496 60.9238 4.48 59.7718 5.896C58.6198 7.288 58.0438 8.824 58.0438 10.504C58.0438 11.68 58.3558 12.82 58.9798 13.924C57.6118 13.924 56.5438 13.588 55.7758 12.916C55.0318 12.244 54.6598 11.296 54.6598 10.072C54.6598 8.512 55.2838 7.024 56.5318 5.608C57.8038 4.168 59.4838 3.016 61.5718 2.152C63.6598 1.288 65.8678 0.856 68.1958 0.856C69.0118 0.856 69.6838 0.916 70.2118 1.036L65.8198 17.668C65.4118 19.18 65.2078 20.476 65.2078 21.556C65.2078 23.836 66.1438 24.976 68.0158 24.976C70.7038 24.976 72.5638 22.504 73.5958 17.56L77.1958 0.927999H82.2718L78.7798 17.56C78.0118 21.088 76.6798 23.752 74.7838 25.552C72.9118 27.352 70.5238 28.252 67.6198 28.252ZM84.6734 28.216C83.5214 28.216 82.5854 27.856 81.8654 27.136C81.1694 26.416 80.8214 25.336 80.8214 23.896C80.8214 23.296 80.9174 22.516 81.1094 21.556L84.9614 3.52L90.2894 2.8L86.1494 22.24C86.0534 22.6 86.0054 22.984 86.0054 23.392C86.0054 23.872 86.1134 24.22 86.3294 24.436C86.5694 24.628 86.9534 24.724 87.4814 24.724C88.1774 24.724 88.8254 24.436 89.4254 23.86C90.0254 23.26 90.4574 22.492 90.7214 21.556H92.2334C91.3454 24.148 90.2054 25.912 88.8134 26.848C87.4214 27.76 86.0414 28.216 84.6734 28.216ZM107.36 32.104C106.472 32.104 105.692 32.032 105.02 31.888C104.348 31.744 103.76 31.396 103.256 30.844C102.776 30.292 102.536 29.44 102.536 28.288C102.536 26.68 103.016 24.52 103.976 21.808C104.96 19.096 106.244 16.372 107.828 13.636C106.628 13.708 105.68 13.888 104.984 14.176C104.288 14.464 103.832 14.908 103.616 15.508C103.712 15.508 103.808 15.628 103.904 15.868C104.024 16.108 104.084 16.36 104.084 16.624C104.084 17.056 103.892 17.404 103.508 17.668C103.124 17.908 102.644 18.028 102.068 18.028C101.396 18.028 100.856 17.848 100.448 17.488C100.04 17.128 99.8357 16.612 99.8357 15.94C99.8357 15.124 100.148 14.38 100.772 13.708C101.42 13.036 102.308 12.508 103.436 12.124C104.564 11.716 105.812 11.512 107.18 11.512C107.684 11.512 108.308 11.548 109.052 11.62C111.02 8.5 113.096 5.956 115.28 3.988C117.488 1.996 119.588 0.999998 121.58 0.999998C122.732 0.999998 123.68 1.168 124.424 1.504L118.772 28H113.588L116.36 14.932C115.472 14.524 114.656 14.224 113.912 14.032C113.168 13.84 112.376 13.708 111.536 13.636C110.168 16.588 109.04 19.612 108.152 22.708C107.288 25.78 106.856 28.24 106.856 30.088C106.856 31 107.024 31.672 107.36 32.104ZM118.772 3.556C117.74 4.108 116.66 5.14 115.532 6.652C114.428 8.14 113.348 9.952 112.292 12.088C114.02 12.424 115.484 12.844 116.684 13.348L118.772 3.556ZM128.379 28.216C127.011 28.216 125.871 27.748 124.959 26.812C124.047 25.876 123.591 24.412 123.591 22.42C123.591 20.644 123.939 18.784 124.635 16.84C125.355 14.872 126.411 13.216 127.803 11.872C129.219 10.504 130.899 9.82 132.843 9.82C133.827 9.82 134.559 9.988 135.039 10.324C135.519 10.66 135.759 11.104 135.759 11.656V11.8L137.523 3.52L142.851 2.8L138.711 22.24C138.615 22.6 138.567 22.984 138.567 23.392C138.567 23.872 138.675 24.22 138.891 24.436C139.131 24.628 139.515 24.724 140.043 24.724C140.715 24.724 141.291 24.436 141.771 23.86C142.275 23.284 142.671 22.516 142.959 21.556H144.471C143.007 25.852 140.595 28 137.235 28C136.251 28 135.447 27.736 134.823 27.208C134.223 26.68 133.851 25.912 133.707 24.904C133.083 25.864 132.327 26.656 131.439 27.28C130.575 27.904 129.555 28.216 128.379 28.216ZM130.719 24.724C131.295 24.724 131.871 24.46 132.447 23.932C133.047 23.404 133.455 22.672 133.671 21.736V21.556L135.435 13.312C135.219 12.472 134.727 12.052 133.959 12.052C132.999 12.052 132.135 12.616 131.367 13.744C130.599 14.848 129.999 16.192 129.567 17.776C129.135 19.336 128.919 20.716 128.919 21.916C128.919 23.116 129.087 23.884 129.423 24.22C129.783 24.556 130.215 24.724 130.719 24.724ZM156.469 28.216C155.005 28.216 153.925 27.832 153.229 27.064C152.557 26.272 152.221 25.3 152.221 24.148C152.221 23.644 152.281 23.08 152.401 22.456C152.521 21.808 152.641 21.184 152.761 20.584C152.905 19.984 153.001 19.6 153.049 19.432C153.241 18.592 153.421 17.764 153.589 16.948C153.757 16.132 153.841 15.472 153.841 14.968C153.841 13.744 153.409 13.132 152.545 13.132C151.921 13.132 151.369 13.444 150.889 14.068C150.409 14.668 150.025 15.46 149.737 16.444L147.289 28H142.105L147.325 3.52L152.653 2.8L150.709 11.872C151.909 10.528 153.313 9.856 154.921 9.856C156.145 9.856 157.117 10.192 157.837 10.864C158.557 11.536 158.917 12.556 158.917 13.924C158.917 14.62 158.833 15.4 158.665 16.264C158.497 17.104 158.257 18.136 157.945 19.36C157.753 20.104 157.573 20.836 157.405 21.556C157.261 22.252 157.189 22.804 157.189 23.212C157.189 23.692 157.297 24.064 157.513 24.328C157.729 24.592 158.101 24.724 158.629 24.724C159.349 24.724 159.925 24.472 160.357 23.968C160.789 23.44 161.221 22.636 161.653 21.556H163.165C162.277 24.196 161.245 25.972 160.069 26.884C158.917 27.772 157.717 28.216 156.469 28.216ZM166.468 28.216C165.1 28.216 163.96 27.748 163.048 26.812C162.136 25.876 161.68 24.412 161.68 22.42C161.68 20.644 162.028 18.784 162.724 16.84C163.444 14.872 164.5 13.216 165.892 11.872C167.308 10.504 168.988 9.82 170.932 9.82C171.916 9.82 172.648 9.988 173.128 10.324C173.608 10.66 173.848 11.104 173.848 11.656V11.908L174.244 10H179.428L176.836 22.24C176.74 22.6 176.692 22.984 176.692 23.392C176.692 24.424 177.184 24.94 178.168 24.94C178.84 24.94 179.416 24.628 179.896 24.004C180.4 23.38 180.796 22.564 181.084 21.556H182.596C181.708 24.148 180.604 25.912 179.284 26.848C177.988 27.76 176.68 28.216 175.36 28.216C174.352 28.216 173.536 27.94 172.912 27.388C172.312 26.812 171.952 25.984 171.832 24.904C171.136 25.888 170.356 26.692 169.492 27.316C168.652 27.916 167.644 28.216 166.468 28.216ZM168.808 24.724C169.408 24.724 169.996 24.448 170.572 23.896C171.172 23.32 171.58 22.54 171.796 21.556L173.524 13.42C173.524 13.108 173.404 12.808 173.164 12.52C172.924 12.208 172.552 12.052 172.048 12.052C171.088 12.052 170.224 12.616 169.456 13.744C168.688 14.848 168.088 16.192 167.656 17.776C167.224 19.336 167.008 20.716 167.008 21.916C167.008 23.116 167.176 23.884 167.512 24.22C167.872 24.556 168.304 24.724 168.808 24.724Z" fill="#EF233C"/>
</svg>
